<mxfile host="app.diagrams.net" modified="2024-03-04T15:03:56.442Z" agent="Mozilla/5.0 (Macintosh; Intel Mac OS X 10_15_7) AppleWebKit/605.1.15 (KHTML, like Gecko) Version/15.5 Safari/605.1.15" etag="K-biWgvyd-IbI-a59Bqo" version="23.1.6" type="github">
  <diagram name="Page-1" id="1W9rriEMluKcIFQNK_wU">
    <mxGraphModel dx="934" dy="676" grid="1" gridSize="10" guides="1" tooltips="1" connect="1" arrows="1" fold="1" page="1" pageScale="1" pageWidth="827" pageHeight="1169" math="0" shadow="0">
      <root>
        <mxCell id="0" />
        <mxCell id="1" parent="0" />
        <mxCell id="HE3g9IFokqo1h-lJYSGL-1" value="&amp;lt;&amp;lt;device&amp;gt;&amp;gt;&lt;br&gt;:CargoScanner" style="shape=cube;whiteSpace=wrap;html=1;boundedLbl=1;backgroundOutline=1;darkOpacity=0.05;darkOpacity2=0.1;size=10;align=left;fontStyle=4;verticalAlign=top;spacingLeft=4;" vertex="1" parent="1">
          <mxGeometry x="230" y="130" width="150" height="80" as="geometry" />
        </mxCell>
        <mxCell id="HE3g9IFokqo1h-lJYSGL-2" value="&amp;lt;&amp;lt;device&amp;gt;&amp;gt;&lt;br&gt;:BoardingPassScanner" style="shape=cube;whiteSpace=wrap;html=1;boundedLbl=1;backgroundOutline=1;darkOpacity=0.05;darkOpacity2=0.1;size=10;align=left;fontStyle=4;verticalAlign=top;spacingLeft=4;" vertex="1" parent="1">
          <mxGeometry x="460" y="130" width="150" height="80" as="geometry" />
        </mxCell>
        <mxCell id="HE3g9IFokqo1h-lJYSGL-6" value=":ApplicationServer" style="shape=cube;whiteSpace=wrap;html=1;boundedLbl=1;backgroundOutline=1;darkOpacity=0.05;darkOpacity2=0.1;size=10;align=left;fontStyle=4;verticalAlign=top;spacingLeft=4;" vertex="1" parent="1">
          <mxGeometry x="300" y="420" width="160" height="230" as="geometry" />
        </mxCell>
        <mxCell id="HE3g9IFokqo1h-lJYSGL-7" value="&lt;b&gt;SkyGateCoreAPI&lt;/b&gt;" style="html=1;dropTarget=0;whiteSpace=wrap;" vertex="1" parent="1">
          <mxGeometry x="330" y="470" width="110" height="70" as="geometry" />
        </mxCell>
        <mxCell id="HE3g9IFokqo1h-lJYSGL-8" value="" style="shape=module;jettyWidth=8;jettyHeight=4;" vertex="1" parent="HE3g9IFokqo1h-lJYSGL-7">
          <mxGeometry x="1" width="20" height="20" relative="1" as="geometry">
            <mxPoint x="-27" y="7" as="offset" />
          </mxGeometry>
        </mxCell>
        <mxCell id="HE3g9IFokqo1h-lJYSGL-9" value="&lt;b&gt;SkyGateCore&lt;/b&gt;" style="html=1;dropTarget=0;whiteSpace=wrap;" vertex="1" parent="1">
          <mxGeometry x="330" y="560" width="110" height="70" as="geometry" />
        </mxCell>
        <mxCell id="HE3g9IFokqo1h-lJYSGL-10" value="" style="shape=module;jettyWidth=8;jettyHeight=4;" vertex="1" parent="HE3g9IFokqo1h-lJYSGL-9">
          <mxGeometry x="1" width="20" height="20" relative="1" as="geometry">
            <mxPoint x="-27" y="7" as="offset" />
          </mxGeometry>
        </mxCell>
      </root>
    </mxGraphModel>
  </diagram>
</mxfile>
